<svg width="1600" height="900" viewBox="0 0 1600 900" fill="none" xmlns="http://www.w3.org/2000/svg">
  <defs>
    <radialGradient id="bgGlow" cx="0" cy="0" r="1" gradientUnits="userSpaceOnUse" gradientTransform="translate(820 560) rotate(90) scale(300 650)">
      <stop stop-color="#0bdfff" stop-opacity="0.35"/>
      <stop offset="0.45" stop-color="#ff006e" stop-opacity="0.2"/>
      <stop offset="1" stop-color="#000" stop-opacity="0"/>
    </radialGradient>
    <linearGradient id="body" x1="309" y1="371" x2="1292" y2="646" gradientUnits="userSpaceOnUse">
      <stop stop-color="#07080d"/>
      <stop offset="0.35" stop-color="#171925"/>
      <stop offset="0.62" stop-color="#050609"/>
      <stop offset="1" stop-color="#0d0e16"/>
    </linearGradient>
    <linearGradient id="hood" x1="798" y1="280" x2="800" y2="602" gradientUnits="userSpaceOnUse">
      <stop stop-color="#252a36" stop-opacity="0.95"/>
      <stop offset="0.52" stop-color="#090a0f"/>
      <stop offset="1" stop-color="#000"/>
    </linearGradient>
    <filter id="cyanGlow" x="0" y="0" width="1600" height="900" filterUnits="userSpaceOnUse">
      <feGaussianBlur stdDeviation="10" result="blur"/>
      <feMerge><feMergeNode in="blur"/><feMergeNode in="SourceGraphic"/></feMerge>
    </filter>
    <filter id="pinkGlow" x="0" y="0" width="1600" height="900" filterUnits="userSpaceOnUse">
      <feGaussianBlur stdDeviation="18" result="blur"/>
      <feMerge><feMergeNode in="blur"/><feMergeNode in="SourceGraphic"/></feMerge>
    </filter>
    <filter id="shadow" x="0" y="0" width="1600" height="900" filterUnits="userSpaceOnUse">
      <feDropShadow dx="0" dy="36" stdDeviation="42" flood-color="#000" flood-opacity="0.85"/>
    </filter>
  </defs>

  <rect width="1600" height="900" fill="transparent"/>
  <ellipse cx="800" cy="650" rx="620" ry="155" fill="url(#bgGlow)"/>
  <ellipse cx="805" cy="688" rx="600" ry="70" fill="#000" opacity="0.72"/>

  <g filter="url(#shadow)">
    <path d="M245 579C268 479 337 425 477 394C565 305 651 269 800 269C947 269 1036 305 1125 394C1270 426 1335 480 1356 579C1368 637 1338 674 1278 674H323C263 674 233 637 245 579Z" fill="url(#body)"/>
    <path d="M506 391C573 311 661 287 800 287C936 287 1026 311 1095 391C1029 372 928 359 800 359C670 359 572 372 506 391Z" fill="#05060a"/>
    <path d="M577 382C633 326 699 309 800 309C900 309 967 326 1022 382C956 371 887 366 800 366C713 366 644 371 577 382Z" fill="#121727"/>
    <path d="M608 395C666 377 736 369 800 369C864 369 934 377 992 395C956 483 915 551 800 551C686 551 644 483 608 395Z" fill="url(#hood)"/>

    <path d="M337 537C430 496 533 483 652 505C612 540 540 565 395 573C355 575 333 558 337 537Z" fill="#080910"/>
    <path d="M1263 537C1170 496 1067 483 948 505C988 540 1060 565 1205 573C1245 575 1267 558 1263 537Z" fill="#080910"/>

    <g filter="url(#cyanGlow)">
      <path d="M372 531C453 502 543 497 634 510C605 533 533 550 421 555C388 556 369 547 372 531Z" fill="#86f7ff" opacity="0.9"/>
      <path d="M1228 531C1147 502 1057 497 966 510C995 533 1067 550 1179 555C1212 556 1231 547 1228 531Z" fill="#86f7ff" opacity="0.9"/>
      <circle cx="503" cy="528" r="42" stroke="#c8fbff" stroke-width="15" opacity="0.95"/>
      <circle cx="1097" cy="528" r="42" stroke="#c8fbff" stroke-width="15" opacity="0.95"/>
    </g>

    <path d="M492 606H697C682 638 649 657 607 657H423C421 630 446 606 492 606Z" fill="#030407"/>
    <path d="M1108 606H903C918 638 951 657 993 657H1177C1179 630 1154 606 1108 606Z" fill="#030407"/>
    <path d="M720 604H880C870 646 842 669 800 669C758 669 730 646 720 604Z" fill="#030407"/>

    <path d="M284 603C369 633 474 647 616 650" stroke="#ff0b72" stroke-width="9" opacity="0.95" filter="url(#pinkGlow)"/>
    <path d="M1316 603C1231 633 1126 647 984 650" stroke="#ff0b72" stroke-width="9" opacity="0.95" filter="url(#pinkGlow)"/>
    <path d="M520 401C607 383 697 377 800 377C903 377 993 383 1080 401" stroke="white" stroke-opacity="0.09" stroke-width="4"/>
    <path d="M553 592C690 612 910 612 1047 592" stroke="white" stroke-opacity="0.07" stroke-width="3"/>
  </g>

  <g opacity="0.45">
    <path d="M320 724C460 694 600 686 800 686C1000 686 1140 694 1280 724" stroke="#66efff" stroke-width="3" opacity="0.22"/>
    <path d="M460 764C610 742 990 742 1140 764" stroke="#ff0b72" stroke-width="3" opacity="0.18"/>
  </g>
</svg>
